<svg width="64" height="64" viewBox="0 0 64 64" fill="none" xmlns="http://www.w3.org/2000/svg">
  <rect width="64" height="64" rx="14" fill="#050505"/>
  <path d="M18 15C18 13.8954 18.8954 13 20 13H25C26.1046 13 27 13.8954 27 15V26H37V15C37 13.8954 37.8954 13 39 13H44C45.1046 13 46 13.8954 46 15V49C46 50.1046 45.1046 51 44 51H39C37.8954 51 37 50.1046 37 49V38H27V49C27 50.1046 26.1046 51 25 51H20C18.8954 51 18 50.1046 18 49V15Z" fill="#F7F7F4"/>
  <rect x="27" y="26" width="10" height="12" fill="#F7F7F4"/>
</svg>
