<svg width="64" height="64" viewBox="0 0 64 64" fill="none" xmlns="http://www.w3.org/2000/svg">
  <rect width="64" height="64" rx="14" fill="#F7F7F4"/>
  <path d="M15 18.6C15 16.7 17.1 15.5 18.8 16.5L29.2 22.5C30.3 23.1 31 24.3 31 25.6V38.4C31 39.7 30.3 40.9 29.2 41.5L18.8 47.5C17.1 48.5 15 47.3 15 45.4V18.6Z" fill="#070707"/>
  <path d="M49 18.6C49 16.7 46.9 15.5 45.2 16.5L34.8 22.5C33.7 23.1 33 24.3 33 25.6V38.4C33 39.7 33.7 40.9 34.8 41.5L45.2 47.5C46.9 48.5 49 47.3 49 45.4V18.6Z" fill="#070707"/>
  <path d="M31 27.2C31 26.5 31.7 26.1 32.3 26.5L35.8 28.6C36.5 29 36.5 30 35.8 30.4L32.3 32.5C31.7 32.9 31 32.5 31 31.8V27.2Z" fill="#F7F7F4"/>
  <path d="M33 36.8C33 37.5 32.3 37.9 31.7 37.5L28.2 35.4C27.5 35 27.5 34 28.2 33.6L31.7 31.5C32.3 31.1 33 31.5 33 32.2V36.8Z" fill="#F7F7F4"/>
</svg>
