<svg width="64" height="64" viewBox="0 0 64 64" fill="none" xmlns="http://www.w3.org/2000/svg">
  <rect width="64" height="64" rx="14" fill="#050505"/>
  <path d="M18 17C18 15.8954 18.8954 15 20 15H26C27.1046 15 28 15.8954 28 17V27H36V17C36 15.8954 36.8954 15 38 15H44C45.1046 15 46 15.8954 46 17V47C46 48.1046 45.1046 49 44 49H38C36.8954 49 36 48.1046 36 47V37H28V47C28 48.1046 27.1046 49 26 49H20C18.8954 49 18 48.1046 18 47V17Z" fill="#F7F7F4"/>
  <rect x="29" y="29" width="6" height="6" rx="1" fill="#050505"/>
</svg>
